<svg xmlns="http://www.w3.org/2000/svg" width="100" height="100" viewBox="0 0 127 115" id="shinigami">
<g>
<path d="M 74.96,6.01 L 81.77,6.32 L 85.92,6.86 L 87.92,7.31 L 91.89,8.36 L 93.92,9.10 L 98.04,10.73 L 100.27,11.80 L 105.99,14.91 L 109.79,17.27 L 111.31,18.34 L 112.74,19.36 L 113.29,19.80 L 114.27,20.61 L 114.54,20.90 L 114.92,21.40 L 114.85,21.50 L 114.50,21.58 L 114.00,21.43 L 107.94,19.93 L 104.11,19.28 L 102.28,19.13 L 98.70,18.95 L 97.00,19.03 L 93.66,19.32 L 92.07,19.64 L 88.90,20.27 L 94.15,23.27 L 100.07,27.34 L 103.76,30.58 L 105.44,32.41 L 108.67,36.21 L 110.07,38.27 L 112.70,42.49 L 113.76,44.71 L 114.87,47.09 L 115.48,48.50 L 115.74,49.14 L 116.62,51.58 L 116.90,52.78 L 117.37,55.24 L 117.52,56.73 L 117.64,58.28 L 117.70,59.17 L 117.79,61.03 L 117.84,62.10 L 117.83,67.72 L 117.59,71.28 L 117.35,72.97 L 116.79,76.31 L 116.39,77.90 L 115.49,81.02 L 114.91,82.52 L 113.68,85.47 L 112.93,86.88 L 111.34,89.66 L 110.42,91.00 L 108.48,93.64 L 107.37,94.91 L 105.06,97.43 L 103.77,98.65 L 99.03,102.73 L 95.86,105.03 L 94.25,106.00 L 91.00,107.80 L 89.31,108.53 L 85.88,109.88 L 84.07,110.41 L 82.04,110.94 L 80.92,111.15 L 78.61,111.52 L 77.38,111.65 L 72.30,112.01 L 69.69,111.96 L 64.48,111.72 L 62.08,111.38 L 59.72,111.00 L 58.63,110.75 L 56.53,110.22 L 55.61,109.91 L 51.28,108.18 L 48.48,106.83 L 47.14,106.06 L 44.49,104.47 L 43.23,103.58 L 40.75,101.76 L 39.59,100.77 L 37.31,98.75 L 36.25,97.67 L 34.19,95.46 L 33.25,94.30 L 31.44,91.93 L 30.64,90.70 L 29.10,88.19 L 28.44,86.89 L 27.59,85.23 L 27.12,84.34 L 26.92,83.99 L 26.21,82.87 L 25.94,82.65 L 25.43,82.42 L 25.18,82.59 L 24.65,83.09 L 24.30,83.55 L 23.69,84.70 L 23.40,85.64 L 23.31,86.20 L 23.18,87.37 L 23.17,88.04 L 23.20,89.45 L 23.27,90.25 L 23.48,93.60 L 23.49,94.38 L 23.47,94.63 L 23.42,95.00 L 23.37,95.00 L 22.80,94.53 L 22.27,93.79 L 21.94,93.26 L 21.27,92.11 L 20.91,91.44 L 20.17,90.03 L 19.81,89.28 L 18.38,86.22 L 17.86,84.90 L 17.39,83.64 L 17.24,83.13 L 17.01,82.23 L 17.01,81.96 L 17.24,80.70 L 17.60,79.70 L 17.87,79.15 L 19.15,76.91 L 19.96,75.96 L 21.68,73.69 L 22.50,72.29 L 22.73,71.63 L 23.08,70.33 L 23.08,69.71 L 22.94,68.48 L 22.69,67.87 L 22.05,66.65 L 21.54,66.03 L 20.38,64.78 L 19.60,64.13 L 17.91,62.80 L 16.85,62.10 L 14.59,60.65 L 13.25,59.87 L 9.37,57.43 L 8.39,56.74 L 8.05,56.47 L 7.49,55.99 L 7.41,55.86 L 7.32,54.88 L 7.40,53.70 L 7.51,52.92 L 7.75,51.24 L 7.93,50.27 L 8.32,48.26 L 8.56,47.20 L 9.07,44.99 L 9.36,43.79 L 9.49,43.31 L 9.73,42.43 L 9.84,42.11 L 10.04,41.53 L 10.13,41.36 L 10.45,40.92 L 10.60,41.08 L 10.89,41.63 L 11.05,42.21 L 11.61,43.77 L 12.15,45.02 L 12.49,45.72 L 14.01,48.69 L 14.93,50.27 L 16.84,53.43 L 17.81,54.86 L 18.77,56.25 L 19.23,56.86 L 20.13,58.03 L 20.54,58.50 L 21.50,59.57 L 22.00,60.08 L 22.18,60.21 L 22.49,60.40 L 22.57,60.36 L 22.68,60.19 L 22.67,59.96 L 22.58,59.39 L 22.46,58.95 L 22.18,57.95 L 21.96,57.28 L 21.47,55.81 L 21.15,54.88 L 20.45,52.91 L 20.02,51.71 L 18.39,46.36 L 17.93,44.55 L 17.75,43.74 L 17.44,42.20 L 17.36,41.61 L 17.11,39.26 L 17.12,38.22 L 17.24,37.88 L 17.56,37.31 L 17.87,37.12 L 18.60,36.80 L 19.13,36.66 L 21.69,36.21 L 23.67,36.01 L 24.50,36.01 L 26.14,35.85 L 26.97,35.52 L 27.32,35.18 L 27.98,34.39 L 28.32,33.75 L 29.01,32.29 L 29.44,31.25 L 30.66,28.84 L 31.74,27.15 L 32.39,26.28 L 35.27,22.74 L 37.02,21.00 L 40.68,17.60 L 42.64,16.11 L 46.62,13.29 L 48.58,12.26 L 54.79,9.44 L 58.96,8.00 L 61.10,7.49 L 65.45,6.61 L 67.74,6.37 L 72.43,6.01 M 33.94,75.66 L 33.78,75.82 L 33.83,76.85 L 34.39,78.07 L 34.92,78.94 L 36.16,80.85 L 37.03,82.06 L 38.93,84.63 L 40.12,86.15 L 43.03,89.83 L 44.79,92.03 L 45.53,92.93 L 46.90,94.58 L 47.37,95.12 L 47.80,95.62 L 47.95,95.78 L 48.21,96.05 L 48.27,96.09 L 48.78,96.78 L 48.91,97.34 L 48.84,97.59 L 49.02,98.89 L 49.48,100.13 L 49.82,100.75 L 50.59,101.93 L 50.99,102.34 L 51.77,103.00 L 52.04,103.00 L 52.76,102.87 L 52.95,102.58 L 52.88,102.27 L 52.62,101.53 L 52.32,100.92 L 51.58,99.53 L 51.01,98.52 L 49.61,95.81 L 49.28,95.08 L 49.17,94.81 L 49.01,94.34 L 49.01,94.24 L 48.73,93.72 L 48.34,93.50 L 48.08,93.50 L 47.19,93.23 L 46.56,92.84 L 46.33,92.59 L 46.09,92.14 L 46.39,92.19 L 46.75,92.40 L 47.63,92.63 L 48.00,92.44 L 48.00,92.18 L 47.58,91.07 L 46.97,90.38 L 46.59,90.11 L 45.80,89.66 L 45.43,89.58 L 44.73,89.55 L 44.50,89.76 L 44.16,89.87 L 44.27,89.48 L 44.49,89.10 L 44.82,88.23 L 44.60,88.13 L 44.27,88.33 L 43.57,88.29 L 43.32,87.73 L 43.36,87.24 L 43.07,86.09 L 42.54,85.70 L 42.18,85.77 L 41.42,85.65 L 41.36,85.22 L 41.58,84.87 L 41.81,84.20 L 41.57,84.15 L 41.27,84.33 L 40.57,84.29 L 40.32,83.73 L 40.36,83.24 L 40.06,82.06 L 39.46,81.73 L 39.00,81.83 L 38.15,81.86 L 38.02,81.64 L 38.22,81.45 L 38.34,80.93 L 38.24,80.41 L 38.11,80.07 L 37.42,78.59 L 36.85,77.79 L 35.88,76.58 L 35.30,76.01 L 35.04,75.85 L 34.54,75.60 L 34.33,75.59 M 94.28,27.80 L 94.19,28.01 L 94.30,28.28 L 94.64,28.95 L 94.97,29.46 L 95.77,30.61 L 96.35,31.37 L 97.75,33.55 L 98.61,35.24 L 99.00,36.20 L 99.76,38.23 L 100.11,39.37 L 100.77,41.74 L 101.07,43.06 L 101.64,45.79 L 101.89,47.29 L 102.37,50.40 L 102.58,52.10 L 102.98,55.59 L 103.14,57.49 L 103.45,61.39 L 103.58,63.50 L 103.79,68.32 L 103.82,71.06 L 103.76,72.22 L 103.60,74.42 L 103.43,75.35 L 103.04,77.11 L 102.75,77.86 L 102.08,79.27 L 101.64,79.88 L 100.67,81.04 L 100.06,81.56 L 98.75,82.57 L 97.95,83.05 L 96.25,84.01 L 95.25,84.50 L 92.86,85.76 L 91.46,86.60 L 90.89,86.99 L 89.87,87.73 L 89.56,88.03 L 89.06,88.58 L 89.05,88.75 L 88.72,89.63 L 88.27,90.00 L 88.00,90.00 L 87.13,90.35 L 87.02,90.92 L 87.19,91.37 L 87.69,92.40 L 88.17,93.07 L 89.29,94.54 L 90.08,95.43 L 91.47,97.17 L 92.11,98.18 L 92.31,98.63 L 92.60,99.49 L 92.63,99.89 L 92.60,100.67 L 92.48,101.06 L 92.22,101.91 L 92.18,102.17 L 92.16,102.59 L 92.27,102.65 L 92.58,102.67 L 92.88,102.55 L 93.59,102.22 L 94.12,101.94 L 96.06,100.67 L 97.47,99.55 L 98.22,98.88 L 101.28,95.93 L 102.79,94.20 L 105.75,90.62 L 107.01,88.81 L 108.22,87.01 L 108.74,86.14 L 109.71,84.44 L 110.08,83.65 L 112.57,77.19 L 113.73,72.87 L 114.05,70.71 L 114.54,66.40 L 114.54,64.26 L 114.36,60.00 L 114.03,57.91 L 113.20,53.76 L 112.54,51.74 L 111.06,47.73 L 110.08,45.79 L 107.96,41.97 L 106.66,40.15 L 103.91,36.56 L 102.30,34.87 L 99.77,32.29 L 98.28,30.84 L 97.65,30.26 L 96.47,29.19 L 96.00,28.81 L 95.15,28.16 L 94.86,27.99 L 94.37,27.75 M 29.51,77.19 L 29.18,77.46 L 29.09,77.67 L 28.91,78.71 L 29.08,79.48 L 29.58,81.17 L 30.05,82.19 L 31.11,84.34 L 31.82,85.51 L 33.33,87.91 L 34.22,89.15 L 36.07,91.62 L 37.08,92.81 L 39.15,95.16 L 40.22,96.22 L 42.39,98.24 L 43.48,99.07 L 44.83,100.08 L 45.44,100.52 L 46.63,101.32 L 47.13,101.63 L 48.03,102.16 L 48.34,102.30 L 48.85,102.49 L 48.91,102.42 L 48.88,101.75 L 48.51,101.11 L 48.18,100.78 L 47.35,99.56 L 47.00,98.64 L 47.00,98.27 L 46.83,97.72 L 46.55,97.18 L 46.34,96.82 L 45.32,95.21 L 44.60,94.17 L 43.02,91.97 L 42.10,90.75 L 40.19,88.24 L 39.19,86.97 L 37.18,84.45 L 36.22,83.29 L 34.33,81.04 L 33.51,80.12 L 31.97,78.43 L 31.41,77.89 L 30.88,77.41 L 30.69,77.27 L 30.34,77.05 L 30.25,77.04 M 52.21,94.45 L 52.24,95.26 L 52.65,96.07 L 53.00,96.50 L 53.73,97.26 L 54.05,97.45 L 54.65,97.69 L 54.79,97.55 L 54.76,96.74 L 54.35,95.93 L 54.00,95.50 L 52.95,94.55 L 52.35,94.31 M 35.63,56.33 L 35.40,56.85 L 35.31,57.31 L 35.15,58.36 L 35.10,59.09 L 35.02,60.69 L 35.02,61.69 L 34.71,64.84 L 34.50,65.65 L 34.38,65.94 L 34.12,66.42 L 33.98,66.51 L 33.70,66.98 L 33.71,67.45 L 33.80,67.76 L 34.04,68.42 L 34.25,68.80 L 34.72,69.61 L 35.05,70.06 L 36.35,72.39 L 36.59,73.04 L 36.63,73.30 L 36.65,73.75 L 36.58,73.88 L 36.49,74.73 L 36.66,75.16 L 36.83,75.46 L 37.22,76.12 L 37.53,76.57 L 38.21,77.54 L 38.68,78.17 L 39.71,79.53 L 40.37,80.38 L 41.79,82.22 L 42.68,83.34 L 44.56,85.73 L 45.69,87.17 L 46.89,88.67 L 47.43,89.30 L 48.47,90.49 L 48.93,90.97 L 49.83,91.86 L 50.23,92.20 L 51.01,92.80 L 51.37,93.00 L 52.05,93.34 L 52.37,93.41 L 52.99,93.49 L 53.29,93.43 L 54.42,92.98 L 54.98,92.42 L 55.65,90.75 L 55.37,89.39 L 54.89,88.62 L 53.70,87.02 L 52.77,86.15 L 50.71,84.37 L 49.36,83.45 L 44.78,79.67 L 42.43,76.95 L 41.54,75.38 L 40.70,73.76 L 40.34,72.87 L 39.65,71.05 L 39.36,70.04 L 38.81,67.97 L 38.58,66.83 L 38.13,64.46 L 37.94,63.15 L 37.46,60.27 L 37.13,58.72 L 36.96,58.13 L 36.63,57.09 L 36.48,56.76 L 36.17,56.22 L 36.02,56.15 L 35.75,56.14 M 64.09,46.78 L 63.48,47.00 L 62.24,47.54 L 61.61,47.91 L 60.35,48.73 L 59.73,49.24 L 57.26,51.50 L 56.16,52.93 L 54.08,55.95 L 53.30,57.65 L 52.05,60.69 L 51.49,62.45 L 51.34,63.33 L 51.10,65.10 L 51.08,66.10 L 51.10,68.22 L 51.18,69.53 L 51.41,72.14 L 51.63,73.64 L 51.80,74.29 L 52.17,75.54 L 52.44,76.11 L 53.03,77.20 L 53.43,77.71 L 54.32,78.73 L 54.89,79.24 L 56.12,80.27 L 56.90,80.82 L 58.55,81.94 L 59.56,82.56 L 61.70,83.87 L 62.98,84.62 L 65.03,85.79 L 65.99,86.32 L 67.85,87.31 L 68.64,87.71 L 70.13,88.43 L 70.66,88.65 L 71.58,89.00 L 71.76,89.00 L 72.90,88.75 L 73.98,88.36 L 74.65,88.08 L 76.06,87.45 L 76.84,87.07 L 78.44,86.27 L 79.28,85.83 L 82.66,83.96 L 84.18,83.02 L 85.64,82.09 L 86.27,81.66 L 87.45,80.81 L 87.89,80.44 L 90.56,77.72 L 92.05,75.75 L 92.58,74.83 L 93.45,73.08 L 93.56,72.44 L 93.61,71.84 L 93.55,71.64 L 93.34,71.28 L 93.13,71.21 L 92.32,70.16 L 91.98,68.90 L 91.97,68.17 L 91.90,66.69 L 91.75,66.24 L 91.55,66.31 L 91.07,66.64 L 90.64,67.13 L 90.17,67.67 L 89.88,68.02 L 89.25,68.78 L 88.87,69.25 L 87.22,71.08 L 86.24,71.95 L 85.76,72.23 L 84.79,72.71 L 84.27,72.83 L 83.17,73.00 L 82.53,73.00 L 79.86,72.58 L 79.09,72.30 L 78.78,72.13 L 78.23,71.77 L 78.06,71.58 L 77.56,70.61 L 77.37,69.79 L 77.34,69.32 L 77.40,67.30 L 77.66,66.18 L 78.32,63.93 L 78.84,62.89 L 80.00,60.91 L 83.15,57.75 L 79.83,54.29 L 76.97,51.72 L 74.85,50.18 L 73.73,49.52 L 71.46,48.28 L 70.30,47.79 L 68.00,46.92 L 66.88,46.66 L 65.25,46.57 M 90.75,70.49 L 90.70,70.85 L 90.53,71.76 L 90.38,72.50 L 89.38,75.76 L 88.39,77.59 L 87.66,78.41 L 86.04,80.02 L 84.90,80.82 L 83.72,81.64 L 83.03,82.06 L 81.59,82.92 L 80.76,83.38 L 78.67,84.56 L 77.80,85.03 L 76.19,85.89 L 75.52,86.21 L 74.26,86.78 L 73.72,86.95 L 72.70,87.23 L 72.22,87.26 L 71.30,87.25 L 70.83,87.15 L 69.88,86.87 L 69.35,86.62 L 68.25,86.08 L 67.60,85.71 L 66.22,84.91 L 65.39,84.41 L 62.43,82.62 L 60.73,81.54 L 60.00,81.04 L 58.61,80.08 L 58.02,79.63 L 56.92,78.75 L 56.46,78.34 L 54.89,76.73 L 54.41,75.94 L 53.62,74.36 L 53.43,73.50 L 52.78,70.50 L 56.08,74.40 L 57.84,76.21 L 59.33,77.57 L 60.18,78.26 L 63.73,81.04 L 65.37,82.08 L 71.35,85.86 L 75.40,83.79 L 80.44,81.00 L 83.21,79.22 L 84.33,78.34 L 86.39,76.60 L 87.17,75.72 L 88.58,73.97 L 89.07,73.07 L 90.16,71.09 L 90.58,70.40 L 90.66,70.36 M 31.05,68.79 L 30.63,69.01 L 29.72,69.53 L 29.17,69.88 L 28.03,70.65 L 27.41,71.10 L 24.84,73.05 L 23.63,74.09 L 22.46,75.13 L 21.95,75.63 L 20.98,76.61 L 20.62,77.05 L 18.78,79.73 L 18.36,80.57 L 18.23,80.93 L 18.04,81.60 L 18.04,81.83 L 18.11,82.18 L 18.21,82.19 L 18.46,82.12 L 18.64,81.94 L 19.03,81.49 L 19.27,81.13 L 19.76,80.34 L 20.03,79.83 L 21.18,78.13 L 22.22,76.91 L 22.85,76.29 L 25.55,73.84 L 26.98,72.92 L 28.93,71.58 L 30.07,70.73 L 30.53,70.36 L 31.35,69.65 L 31.60,69.38 L 32.00,68.90 L 32.00,68.78 L 31.63,68.61 M 34.63,76.20 L 34.93,76.51 L 35.12,76.73 L 35.96,77.81 L 36.41,78.50 L 37.14,79.68 L 37.34,80.09 L 37.63,80.79 L 37.62,80.92 L 37.49,81.04 L 37.26,80.86 L 36.71,80.31 L 36.28,79.75 L 35.27,78.35 L 34.74,77.50 L 34.56,77.15 L 34.26,76.51 L 34.21,76.31 L 34.20,76.00 L 34.33,76.00 M 59.80,58.38 L 61.07,58.98 L 61.66,59.42 L 62.82,60.39 L 63.34,60.98 L 64.34,62.21 L 64.75,62.89 L 65.52,64.30 L 65.80,65.03 L 66.28,66.50 L 66.40,67.23 L 66.53,68.67 L 66.45,69.35 L 66.18,70.66 L 65.87,71.24 L 65.42,71.89 L 65.11,72.14 L 64.43,72.59 L 64.02,72.74 L 62.23,73.14 L 61.21,73.06 L 59.12,72.70 L 58.12,72.24 L 56.19,71.16 L 55.45,70.35 L 54.11,68.50 L 53.48,67.16 L 53.29,66.48 L 53.00,65.10 L 52.97,64.42 L 52.98,63.07 L 53.11,62.45 L 53.42,61.23 L 53.69,60.69 L 54.29,59.68 L 54.69,59.28 L 55.56,58.56 L 56.08,58.34 L 57.20,58.00 L 57.85,58.00 M 84.91,64.77 L 84.56,64.95 L 82.99,65.90 L 82.16,66.55 L 80.55,67.89 L 79.96,68.53 L 79.43,69.15 L 79.26,69.41 L 79.00,69.91 L 79.00,70.09 L 79.23,70.74 L 79.59,70.88 L 80.46,71.04 L 81.01,70.95 L 82.16,70.66 L 82.72,70.37 L 83.80,69.71 L 84.19,69.25 L 85.64,67.43 L 86.26,66.47 L 86.42,66.10 L 86.61,65.42 L 86.56,65.17 L 86.35,64.72 L 86.10,64.56 L 85.50,64.56 M 57.88,64.57 L 57.16,65.32 L 57.02,65.94 L 57.11,66.30 L 57.40,67.07 L 57.72,67.52 L 58.46,68.46 L 59.00,69.00 L 60.18,70.04 L 60.76,70.36 L 61.89,70.88 L 62.37,70.93 L 63.26,70.90 L 63.55,70.68 L 64.00,70.09 L 64.00,69.57 L 63.79,68.82 L 63.45,68.25 L 63.22,67.95 L 62.09,66.70 L 61.40,66.13 L 59.98,65.09 L 59.35,64.79 L 58.75,64.54 L 58.50,64.50 L 58.03,64.48 M 64.71,19.14 L 64.20,19.18 L 62.33,19.41 L 61.48,19.72 L 59.78,20.49 L 58.73,21.17 L 57.64,21.91 L 57.00,22.36 L 55.66,23.34 L 54.85,23.93 L 49.87,28.08 L 47.06,30.93 L 45.90,32.44 L 43.72,35.50 L 42.85,37.13 L 41.24,40.48 L 40.62,42.28 L 40.05,44.43 L 39.72,46.09 L 39.59,47.01 L 39.15,50.88 L 39.07,52.94 L 39.00,57.08 L 39.11,59.00 L 39.25,60.88 L 39.35,61.75 L 39.59,63.41 L 39.75,64.12 L 39.88,64.67 L 39.95,64.83 L 40.07,65.08 L 40.13,65.09 L 40.24,65.02 L 40.30,64.87 L 40.40,64.48 L 40.45,64.16 L 40.56,63.43 L 40.61,62.93 L 40.70,61.85 L 40.75,61.18 L 40.85,59.74 L 40.90,58.87 L 41.00,57.05 L 41.05,56.00 L 41.40,50.54 L 41.71,47.54 L 41.90,46.31 L 42.31,44.02 L 42.56,43.10 L 43.10,41.40 L 43.42,40.73 L 44.84,38.14 L 45.69,36.90 L 46.00,36.59 L 46.28,36.33 L 46.39,36.29 L 46.57,36.27 L 46.62,36.35 L 46.67,36.59 L 46.64,36.81 L 46.54,37.33 L 46.43,37.70 L 46.32,38.30 L 46.39,38.44 L 46.50,38.39 L 46.76,38.18 L 46.96,37.95 L 47.40,37.40 L 47.69,37.00 L 50.86,33.06 L 53.40,30.26 L 54.72,28.93 L 57.35,26.35 L 58.55,25.30 L 59.71,24.31 L 60.23,23.91 L 61.23,23.17 L 61.65,22.91 L 63.33,22.04 L 64.68,21.47 L 65.41,21.21 L 68.45,20.25 L 69.75,20.03 L 74.50,19.24 L 68.00,19.13 L 65.90,19.12 M 69.98,9.20 L 67.26,9.47 L 66.00,9.68 L 63.56,10.15 L 62.47,10.47 L 57.44,12.21 L 53.88,13.66 L 52.30,14.39 L 50.78,15.11 L 50.13,15.45 L 48.90,16.10 L 48.44,16.38 L 47.62,16.90 L 47.40,17.10 L 47.11,17.44 L 47.20,17.53 L 47.83,17.49 L 48.68,17.28 L 49.27,17.09 L 50.55,16.67 L 51.29,16.39 L 52.85,15.81 L 53.69,15.47 L 60.33,13.30 L 65.07,12.19 L 67.31,11.83 L 69.51,11.52 L 70.53,11.42 L 72.50,11.26 L 73.36,11.25 L 74.98,11.27 L 75.63,11.36 L 76.82,11.57 L 77.21,11.76 L 78.25,12.34 L 78.44,12.60 L 78.24,12.69 L 77.66,12.82 L 77.04,12.86 L 75.56,12.92 L 74.46,12.93 L 67.79,13.55 L 63.27,14.46 L 61.02,15.13 L 56.56,16.61 L 54.41,17.53 L 50.18,19.48 L 48.22,20.59 L 44.39,22.92 L 42.70,24.19 L 39.45,26.78 L 38.11,28.15 L 35.61,30.93 L 34.71,32.35 L 33.86,33.78 L 33.53,34.49 L 32.94,35.92 L 32.75,36.63 L 31.59,41.00 L 26.29,41.00 L 24.27,41.04 L 23.18,41.13 L 22.76,41.23 L 22.00,41.47 L 21.73,41.66 L 21.27,42.11 L 21.15,42.43 L 20.96,43.16 L 20.96,43.65 L 21.03,44.71 L 21.15,45.40 L 21.44,46.87 L 21.66,47.78 L 22.15,49.73 L 22.46,50.90 L 23.12,53.16 L 23.56,54.47 L 23.77,55.01 L 24.18,56.02 L 24.37,56.40 L 24.73,57.07 L 24.88,57.27 L 25.16,57.57 L 25.27,57.57 L 25.45,57.48 L 25.50,57.27 L 25.56,56.74 L 25.53,56.31 L 25.44,55.32 L 25.33,54.64 L 25.34,51.56 L 25.87,49.81 L 26.37,49.14 L 27.51,47.94 L 28.27,47.58 L 29.92,47.05 L 30.90,47.08 L 32.36,47.28 L 32.54,47.40 L 32.52,47.46 L 32.40,47.60 L 32.23,47.67 L 31.08,48.52 L 30.37,49.42 L 30.05,50.01 L 29.45,51.25 L 29.19,51.97 L 28.71,53.45 L 28.53,54.25 L 27.96,57.54 L 27.95,59.14 L 28.00,60.71 L 28.11,61.43 L 28.38,62.82 L 28.61,63.42 L 29.14,64.59 L 29.40,64.79 L 29.65,64.92 L 29.78,64.89 L 30.03,64.75 L 30.16,64.58 L 30.42,64.17 L 30.55,63.86 L 30.81,63.16 L 30.95,62.71 L 31.22,61.73 L 31.37,61.13 L 31.66,59.86 L 31.81,59.12 L 33.40,53.89 L 34.10,52.20 L 34.45,51.46 L 35.17,50.08 L 35.51,49.57 L 37.28,46.63 L 37.69,45.79 L 37.82,45.46 L 38.02,44.87 L 38.02,44.71 L 38.20,43.68 L 38.47,42.78 L 38.67,42.25 L 39.64,39.96 L 40.29,38.66 L 41.68,36.03 L 42.44,34.78 L 43.97,32.38 L 44.69,31.45 L 46.33,29.66 L 47.83,28.21 L 48.72,27.43 L 52.54,24.18 L 54.46,22.78 L 56.76,21.11 L 58.05,20.20 L 58.62,19.83 L 60.74,18.60 L 61.81,18.21 L 62.91,17.87 L 63.52,17.73 L 64.81,17.48 L 65.57,17.37 L 67.18,17.16 L 68.15,17.06 L 70.21,16.86 L 71.46,16.75 L 76.24,16.42 L 79.93,16.25 L 81.86,16.21 L 85.74,16.14 L 87.60,16.14 L 91.22,16.17 L 92.76,16.22 L 97.08,16.32 L 99.54,16.32 L 100.50,16.28 L 102.19,16.20 L 102.67,16.13 L 103.09,16.05 L 103.19,16.01 L 103.32,15.92 L 103.26,15.86 L 102.41,15.35 L 101.37,14.85 L 100.67,14.53 L 99.15,13.88 L 98.28,13.52 L 96.46,12.78 L 95.50,12.42 L 91.75,11.20 L 89.04,10.52 L 87.61,10.24 L 81.73,9.33 L 78.73,9.15 L 72.75,8.99 M 10.88,48.08 L 10.42,48.38 L 10.26,48.83 L 10.01,49.92 L 10.02,50.75 L 10.20,52.99 L 10.59,54.21 L 11.03,54.82 L 12.08,56.09 L 12.97,56.89 L 13.92,57.73 L 14.51,58.22 L 15.75,59.25 L 16.50,59.86 L 17.87,60.96 L 18.51,61.44 L 19.75,62.37 L 20.28,62.74 L 21.26,63.42 L 21.61,63.63 L 22.22,63.96 L 22.33,63.96 L 22.25,63.52 L 21.80,62.82 L 21.41,62.30 L 20.53,61.17 L 19.96,60.48 L 18.74,59.04 L 18.04,58.25 L 14.25,53.53 L 13.30,52.14 L 12.97,51.58 L 12.43,50.56 L 12.35,50.25 L 11.65,48.54 L 11.12,48.03 M 83.48,23.18 L 83.67,23.63 L 84.13,24.16 L 84.51,24.52 L 85.34,25.27 L 85.86,25.70 L 86.98,26.60 L 87.61,27.07 L 90.12,29.16 L 91.60,30.63 L 92.26,31.43 L 93.53,33.08 L 94.08,33.98 L 95.15,35.84 L 95.61,36.87 L 96.50,39.00 L 96.89,40.19 L 97.63,42.64 L 97.95,44.01 L 98.56,46.85 L 98.82,48.42 L 99.33,51.69 L 99.55,53.50 L 100.14,57.57 L 100.34,58.75 L 100.43,59.22 L 100.61,60.07 L 100.68,60.33 L 101.00,61.23 L 101.18,61.47 L 101.54,61.80 L 101.67,61.66 L 101.81,61.24 L 101.85,60.74 L 101.84,60.40 L 101.76,58.77 L 101.63,57.66 L 101.33,55.28 L 101.12,53.91 L 100.66,51.06 L 100.39,49.57 L 99.82,46.55 L 99.52,45.09 L 98.89,42.20 L 98.58,40.90 L 97.96,38.43 L 97.67,37.46 L 97.10,35.70 L 96.85,35.19 L 95.77,33.49 L 94.74,32.18 L 94.12,31.48 L 91.37,28.58 L 89.89,27.26 L 88.42,25.97 L 87.73,25.42 L 86.38,24.38 L 85.80,24.00 L 84.72,23.34 L 84.32,23.20 L 83.63,23.03 Z" fill="var(--color-shinigami-1, #373c42)"/>
<path d="M 60.00,113.44 L 59.11,113.24 L 56.98,112.64 L 55.89,112.32 L 53.58,111.52 L 52.43,111.11 L 50.20,110.21 L 47.27,108.88 L 46.42,108.45 L 44.57,107.31 L 43.63,106.70 L 41.66,105.28 L 39.68,103.80 L 35.80,100.37 L 34.87,99.50 L 33.14,97.76 L 32.30,96.90 L 30.85,95.23 L 30.17,94.41 L 29.08,92.91 L 27.97,90.93 L 27.69,90.26 L 27.16,89.26 L 26.90,88.82 L 26.42,88.28 L 26.20,88.06 L 25.81,87.92 L 25.64,87.90 L 25.37,88.14 L 25.25,88.30 L 25.13,88.88 L 25.08,89.20 L 25.13,90.07 L 25.18,90.54 L 25.42,91.67 L 26.04,93.61 L 26.25,94.15 L 26.48,95.01 L 26.56,95.42 L 26.55,96.10 L 26.52,96.42 L 26.25,97.01 L 25.55,97.88 L 25.08,98.35 L 24.33,98.77 L 24.14,98.82 L 23.75,98.75 L 23.55,98.68 L 23.11,98.33 L 22.88,98.12 L 22.33,97.46 L 22.05,97.09 L 21.36,96.09 L 21.00,95.54 L 20.13,94.14 L 18.57,91.56 L 17.99,90.61 L 17.06,88.85 L 16.62,88.00 L 15.97,86.43 L 15.67,85.66 L 15.29,84.23 L 15.13,83.52 L 15.03,82.20 L 15.01,81.54 L 15.17,80.28 L 15.29,79.66 L 15.73,78.44 L 15.99,77.83 L 16.70,76.60 L 18.07,74.73 L 18.92,73.70 L 20.15,71.58 L 20.40,71.08 L 20.70,70.22 L 20.82,69.25 L 20.78,69.01 L 20.18,68.23 L 19.81,67.81 L 18.68,66.76 L 18.06,66.22 L 16.55,65.04 L 14.00,63.25 L 12.79,62.46 L 10.83,61.17 L 9.92,60.56 L 8.48,59.57 L 7.82,59.10 L 6.84,58.31 L 6.41,57.92 L 5.81,57.22 L 5.55,56.87 L 5.25,56.15 L 5.13,55.79 L 5.07,54.96 L 5.05,54.52 L 5.14,53.49 L 5.36,51.58 L 5.60,49.55 L 6.34,45.88 L 6.75,44.14 L 7.75,41.25 L 8.01,40.59 L 8.55,39.48 L 8.82,38.95 L 9.39,38.14 L 9.67,37.77 L 10.25,37.29 L 11.09,37.00 L 11.74,37.00 L 12.54,37.55 L 13.05,39.25 L 13.06,39.81 L 13.50,41.59 L 13.76,42.53 L 14.45,44.43 L 14.62,44.88 L 14.96,45.64 L 15.12,45.99 L 15.41,46.49 L 15.54,46.70 L 15.73,46.83 L 15.88,46.50 L 15.88,46.36 L 15.82,45.76 L 15.78,45.41 L 15.65,44.47 L 15.04,41.00 L 14.90,40.28 L 14.73,39.04 L 14.67,38.46 L 14.66,37.47 L 14.67,37.01 L 14.85,36.25 L 14.96,35.90 L 15.34,35.34 L 15.55,35.08 L 16.16,34.69 L 16.49,34.52 L 17.35,34.28 L 17.81,34.18 L 18.93,34.06 L 20.95,34.00 L 22.12,34.00 L 23.70,33.92 L 24.40,33.83 L 25.36,33.35 L 25.81,33.03 L 26.59,31.84 L 26.80,31.49 L 27.25,30.59 L 28.04,28.92 L 28.40,28.14 L 29.43,26.45 L 29.99,25.59 L 31.35,23.81 L 32.77,22.01 L 36.34,18.39 L 38.19,16.62 L 42.21,13.43 L 43.22,12.69 L 45.23,11.36 L 48.17,9.69 L 49.63,8.96 L 52.64,7.68 L 54.17,7.07 L 57.30,6.04 L 60.45,5.07 L 66.93,3.90 L 68.55,3.67 L 71.80,3.41 L 73.42,3.32 L 76.64,3.33 L 78.24,3.37 L 81.39,3.65 L 86.00,4.39 L 87.58,4.72 L 91.04,5.77 L 92.80,6.34 L 96.47,7.79 L 98.32,8.55 L 101.98,10.26 L 103.79,11.15 L 107.23,13.01 L 108.89,13.96 L 111.88,15.85 L 113.30,16.79 L 115.62,18.59 L 116.67,19.46 L 118.10,21.03 L 118.39,21.41 L 118.77,22.09 L 119.00,23.01 L 119.00,23.60 L 118.74,24.35 L 118.55,24.66 L 117.77,24.88 L 117.29,24.92 L 115.79,24.61 L 115.36,24.50 L 114.33,24.19 L 112.50,23.58 L 111.04,23.08 L 107.62,22.27 L 105.89,21.91 L 102.56,21.46 L 101.78,21.37 L 100.37,21.28 L 99.70,21.25 L 98.60,21.28 L 98.10,21.31 L 97.43,21.48 L 97.00,21.88 L 97.00,22.19 L 97.27,22.67 L 97.92,23.00 L 98.14,23.00 L 98.94,23.44 L 99.39,23.73 L 100.57,24.65 L 101.19,25.15 L 102.62,26.43 L 103.36,27.11 L 104.92,28.63 L 106.49,30.18 L 109.51,33.50 L 110.22,34.31 L 111.45,35.83 L 112.90,37.84 L 113.95,39.48 L 115.79,43.12 L 116.66,44.99 L 118.09,48.98 L 118.75,51.00 L 119.73,55.18 L 120.64,61.50 L 120.76,63.04 L 120.77,66.11 L 120.74,67.63 L 120.44,70.66 L 120.25,72.17 L 119.66,75.15 L 119.33,76.62 L 118.46,79.53 L 117.99,80.96 L 116.85,83.77 L 116.25,85.17 L 114.87,87.86 L 114.15,89.20 L 112.53,91.77 L 111.69,93.04 L 109.85,95.46 L 108.90,96.65 L 106.86,98.91 L 105.81,100.01 L 103.58,102.09 L 102.44,103.10 L 100.02,104.97 L 98.80,105.87 L 96.23,107.52 L 94.92,108.32 L 92.20,109.72 L 90.83,110.40 L 87.97,111.55 L 86.53,112.09 L 83.57,112.96 L 79.00,113.94 L 77.98,114.10 L 76.17,114.36 L 75.30,114.49 L 73.72,114.66 L 72.19,114.81 L 69.47,114.84 L 68.11,114.80 L 65.23,114.44 L 64.47,114.32 L 62.80,114.01 L 61.94,113.85 M 84.07,110.41 L 85.88,109.88 L 89.31,108.53 L 91.00,107.80 L 94.25,106.00 L 95.86,105.03 L 99.03,102.73 L 103.77,98.65 L 105.06,97.43 L 107.37,94.91 L 108.48,93.64 L 110.42,91.00 L 111.34,89.66 L 112.93,86.88 L 113.68,85.47 L 114.91,82.52 L 115.49,81.02 L 116.39,77.90 L 116.79,76.31 L 117.35,72.97 L 117.59,71.28 L 117.83,67.72 L 117.84,62.10 L 117.79,61.03 L 117.70,59.17 L 117.64,58.28 L 117.52,56.73 L 117.37,55.24 L 116.90,52.78 L 116.62,51.58 L 115.74,49.14 L 115.48,48.50 L 114.87,47.09 L 113.76,44.71 L 112.70,42.49 L 110.07,38.27 L 108.67,36.21 L 105.44,32.41 L 103.76,30.58 L 100.07,27.34 L 94.15,23.27 L 88.90,20.27 L 92.07,19.64 L 93.66,19.32 L 97.00,19.03 L 98.70,18.95 L 102.28,19.13 L 104.11,19.28 L 107.94,19.93 L 114.00,21.43 L 114.50,21.58 L 114.85,21.50 L 114.92,21.40 L 114.54,20.90 L 114.27,20.61 L 113.29,19.80 L 112.74,19.36 L 111.31,18.34 L 109.79,17.27 L 105.99,14.91 L 100.27,11.80 L 98.04,10.73 L 93.92,9.10 L 91.89,8.36 L 87.92,7.31 L 85.92,6.86 L 81.77,6.32 L 74.96,6.01 L 72.43,6.01 L 67.74,6.37 L 65.45,6.61 L 61.10,7.49 L 58.96,8.00 L 54.79,9.44 L 48.58,12.26 L 46.62,13.29 L 42.64,16.11 L 40.68,17.60 L 37.02,21.00 L 35.27,22.74 L 32.39,26.28 L 31.74,27.15 L 30.66,28.84 L 29.44,31.25 L 29.01,32.29 L 28.32,33.75 L 27.98,34.39 L 27.32,35.18 L 26.97,35.52 L 26.14,35.85 L 24.50,36.01 L 23.67,36.01 L 21.69,36.21 L 19.13,36.66 L 18.60,36.80 L 17.87,37.12 L 17.56,37.31 L 17.24,37.88 L 17.12,38.22 L 17.11,39.26 L 17.36,41.61 L 17.44,42.20 L 17.75,43.74 L 17.93,44.55 L 18.39,46.36 L 20.02,51.71 L 20.45,52.91 L 21.15,54.88 L 21.47,55.81 L 21.96,57.28 L 22.18,57.95 L 22.46,58.95 L 22.58,59.39 L 22.67,59.96 L 22.68,60.19 L 22.57,60.36 L 22.49,60.40 L 22.18,60.21 L 22.00,60.08 L 21.50,59.57 L 20.54,58.50 L 20.13,58.03 L 19.23,56.86 L 18.77,56.25 L 17.81,54.86 L 16.84,53.43 L 14.93,50.27 L 14.01,48.69 L 12.49,45.72 L 12.15,45.02 L 11.61,43.77 L 11.05,42.21 L 10.89,41.63 L 10.60,41.08 L 10.45,40.92 L 10.13,41.36 L 10.04,41.53 L 9.84,42.11 L 9.73,42.43 L 9.49,43.31 L 9.36,43.79 L 9.07,44.99 L 8.56,47.20 L 8.32,48.26 L 7.93,50.27 L 7.75,51.24 L 7.51,52.92 L 7.40,53.70 L 7.32,54.88 L 7.41,55.86 L 7.49,55.99 L 8.05,56.47 L 8.39,56.74 L 9.37,57.43 L 13.25,59.87 L 14.59,60.65 L 16.85,62.10 L 17.91,62.80 L 19.60,64.13 L 20.38,64.78 L 21.54,66.03 L 22.05,66.65 L 22.69,67.87 L 22.94,68.48 L 23.08,69.71 L 23.08,70.33 L 22.73,71.63 L 22.50,72.29 L 21.68,73.69 L 19.96,75.96 L 19.15,76.91 L 17.87,79.15 L 17.60,79.70 L 17.24,80.70 L 17.01,81.96 L 17.01,82.23 L 17.24,83.13 L 17.39,83.64 L 17.86,84.90 L 18.38,86.22 L 19.81,89.28 L 20.17,90.03 L 20.91,91.44 L 21.27,92.11 L 21.94,93.26 L 22.27,93.79 L 22.80,94.53 L 23.37,95.00 L 23.42,95.00 L 23.47,94.63 L 23.49,94.38 L 23.48,93.60 L 23.27,90.25 L 23.20,89.45 L 23.17,88.04 L 23.18,87.37 L 23.31,86.20 L 23.40,85.64 L 23.69,84.70 L 24.30,83.55 L 24.65,83.09 L 25.18,82.59 L 25.43,82.42 L 25.94,82.65 L 26.21,82.87 L 26.92,83.99 L 27.12,84.34 L 27.59,85.23 L 28.44,86.89 L 29.10,88.19 L 30.64,90.70 L 31.44,91.93 L 33.25,94.30 L 34.19,95.46 L 36.25,97.67 L 37.31,98.75 L 39.59,100.77 L 40.75,101.76 L 43.23,103.58 L 44.49,104.47 L 47.14,106.06 L 48.48,106.83 L 51.28,108.18 L 55.61,109.91 L 56.53,110.22 L 58.63,110.75 L 59.72,111.00 L 62.08,111.38 L 64.48,111.72 L 69.69,111.96 L 72.30,112.01 L 77.38,111.65 L 78.61,111.52 L 80.92,111.15 L 82.04,110.94 M 43.48,99.07 L 42.39,98.24 L 40.22,96.22 L 39.15,95.16 L 37.08,92.81 L 36.07,91.62 L 34.22,89.15 L 33.33,87.91 L 31.82,85.51 L 31.11,84.34 L 30.05,82.19 L 29.58,81.17 L 29.08,79.48 L 28.91,78.71 L 29.09,77.67 L 29.18,77.46 L 29.51,77.19 L 30.25,77.04 L 30.34,77.05 L 30.69,77.27 L 30.88,77.41 L 31.41,77.89 L 31.97,78.43 L 33.51,80.12 L 34.33,81.04 L 36.22,83.29 L 37.18,84.45 L 39.19,86.97 L 40.19,88.24 L 42.10,90.75 L 43.02,91.97 L 44.60,94.17 L 45.32,95.21 L 46.34,96.82 L 46.55,97.18 L 46.83,97.72 L 47.00,98.27 L 47.00,98.64 L 47.35,99.56 L 48.18,100.78 L 48.51,101.11 L 48.88,101.75 L 48.91,102.42 L 48.85,102.49 L 48.34,102.30 L 48.03,102.16 L 47.13,101.63 L 46.63,101.32 L 45.44,100.52 L 44.83,100.08 M 49.82,100.75 L 49.48,100.13 L 49.02,98.89 L 48.84,97.59 L 48.91,97.34 L 48.78,96.78 L 48.27,96.09 L 48.21,96.05 L 47.95,95.78 L 47.80,95.62 L 47.37,95.12 L 46.90,94.58 L 45.53,92.93 L 44.79,92.03 L 43.03,89.83 L 40.12,86.15 L 38.93,84.63 L 37.03,82.06 L 36.16,80.85 L 34.92,78.94 L 34.39,78.07 L 33.83,76.85 L 33.78,75.82 L 33.94,75.66 L 34.33,75.59 L 34.54,75.60 L 35.04,75.85 L 35.30,76.01 L 35.88,76.58 L 36.85,77.79 L 37.42,78.59 L 38.11,80.07 L 38.24,80.41 L 38.34,80.93 L 38.22,81.45 L 38.02,81.64 L 38.15,81.86 L 39.00,81.83 L 39.46,81.73 L 40.06,82.06 L 40.36,83.24 L 40.32,83.73 L 40.57,84.29 L 41.27,84.33 L 41.57,84.15 L 41.81,84.20 L 41.58,84.87 L 41.36,85.22 L 41.42,85.65 L 42.18,85.77 L 42.54,85.70 L 43.07,86.09 L 43.36,87.24 L 43.32,87.73 L 43.57,88.29 L 44.27,88.33 L 44.60,88.13 L 44.82,88.23 L 44.49,89.10 L 44.27,89.48 L 44.16,89.87 L 44.50,89.76 L 44.73,89.55 L 45.43,89.58 L 45.80,89.66 L 46.59,90.11 L 46.97,90.38 L 47.58,91.07 L 48.00,92.18 L 48.00,92.44 L 47.63,92.63 L 46.75,92.40 L 46.39,92.19 L 46.09,92.14 L 46.33,92.59 L 46.56,92.84 L 47.19,93.23 L 48.08,93.50 L 48.34,93.50 L 48.73,93.72 L 49.01,94.24 L 49.01,94.34 L 49.17,94.81 L 49.28,95.08 L 49.61,95.81 L 51.01,98.52 L 51.58,99.53 L 52.32,100.92 L 52.62,101.53 L 52.88,102.27 L 52.95,102.58 L 52.76,102.87 L 52.04,103.00 L 51.77,103.00 L 50.99,102.34 L 50.59,101.93 M 36.41,78.50 L 35.96,77.81 L 35.12,76.73 L 34.93,76.51 L 34.63,76.20 L 34.33,76.00 L 34.20,76.00 L 34.21,76.31 L 34.26,76.51 L 34.56,77.15 L 34.74,77.50 L 35.27,78.35 L 36.28,79.75 L 36.71,80.31 L 37.26,80.86 L 37.49,81.04 L 37.62,80.92 L 37.63,80.79 L 37.34,80.09 L 37.14,79.68 M 92.48,101.06 L 92.60,100.67 L 92.63,99.89 L 92.60,99.49 L 92.31,98.63 L 92.11,98.18 L 91.47,97.17 L 90.08,95.43 L 89.29,94.54 L 88.17,93.07 L 87.69,92.40 L 87.19,91.37 L 87.02,90.92 L 87.13,90.35 L 88.00,90.00 L 88.27,90.00 L 88.72,89.63 L 89.05,88.75 L 89.06,88.58 L 89.56,88.03 L 89.87,87.73 L 90.89,86.99 L 91.46,86.60 L 92.86,85.76 L 95.25,84.50 L 96.25,84.01 L 97.95,83.05 L 98.75,82.57 L 100.06,81.56 L 100.67,81.04 L 101.64,79.88 L 102.08,79.27 L 102.75,77.86 L 103.04,77.11 L 103.43,75.35 L 103.60,74.42 L 103.76,72.22 L 103.82,71.06 L 103.79,68.32 L 103.58,63.50 L 103.45,61.39 L 103.14,57.49 L 102.98,55.59 L 102.58,52.10 L 102.37,50.40 L 101.89,47.29 L 101.64,45.79 L 101.07,43.06 L 100.77,41.74 L 100.11,39.37 L 99.76,38.23 L 99.00,36.20 L 98.61,35.24 L 97.75,33.55 L 96.35,31.37 L 95.77,30.61 L 94.97,29.46 L 94.64,28.95 L 94.30,28.28 L 94.19,28.01 L 94.28,27.80 L 94.37,27.75 L 94.86,27.99 L 95.15,28.16 L 96.00,28.81 L 96.47,29.19 L 97.65,30.26 L 98.28,30.84 L 99.77,32.29 L 102.30,34.87 L 103.91,36.56 L 106.66,40.15 L 107.96,41.97 L 110.08,45.79 L 111.06,47.73 L 112.54,51.74 L 113.20,53.76 L 114.03,57.91 L 114.36,60.00 L 114.54,64.26 L 114.54,66.40 L 114.05,70.71 L 113.73,72.87 L 112.57,77.19 L 110.08,83.65 L 109.71,84.44 L 108.74,86.14 L 108.22,87.01 L 107.01,88.81 L 105.75,90.62 L 102.79,94.20 L 101.28,95.93 L 98.22,98.88 L 97.47,99.55 L 96.06,100.67 L 94.12,101.94 L 93.59,102.22 L 92.88,102.55 L 92.58,102.67 L 92.27,102.65 L 92.16,102.59 L 92.18,102.17 L 92.22,101.91 M 53.00,96.50 L 52.65,96.07 L 52.24,95.26 L 52.21,94.45 L 52.35,94.31 L 52.95,94.55 L 54.00,95.50 L 54.35,95.93 L 54.76,96.74 L 54.79,97.55 L 54.65,97.69 L 54.05,97.45 L 53.73,97.26 M 45.69,87.17 L 44.56,85.73 L 42.68,83.34 L 41.79,82.22 L 40.37,80.38 L 39.71,79.53 L 38.68,78.17 L 38.21,77.54 L 37.53,76.57 L 37.22,76.12 L 36.83,75.46 L 36.66,75.16 L 36.49,74.73 L 36.58,73.88 L 36.65,73.75 L 36.63,73.30 L 36.59,73.04 L 36.35,72.39 L 35.05,70.06 L 34.72,69.61 L 34.25,68.80 L 34.04,68.42 L 33.80,67.76 L 33.71,67.45 L 33.70,66.98 L 33.98,66.51 L 34.12,66.42 L 34.38,65.94 L 34.50,65.65 L 34.71,64.84 L 35.02,61.69 L 35.02,60.69 L 35.10,59.09 L 35.15,58.36 L 35.31,57.31 L 35.40,56.85 L 35.63,56.33 L 35.75,56.14 L 36.02,56.15 L 36.17,56.22 L 36.48,56.76 L 36.63,57.09 L 36.96,58.13 L 37.13,58.72 L 37.46,60.27 L 37.94,63.15 L 38.13,64.46 L 38.58,66.83 L 38.81,67.97 L 39.36,70.04 L 39.65,71.05 L 40.34,72.87 L 40.70,73.76 L 41.54,75.38 L 42.43,76.95 L 44.78,79.67 L 49.36,83.45 L 50.71,84.37 L 52.77,86.15 L 53.70,87.02 L 54.89,88.62 L 55.37,89.39 L 55.65,90.75 L 54.98,92.42 L 54.42,92.98 L 53.29,93.43 L 52.99,93.49 L 52.37,93.41 L 52.05,93.34 L 51.37,93.00 L 51.01,92.80 L 50.23,92.20 L 49.83,91.86 L 48.93,90.97 L 48.47,90.49 L 47.43,89.30 L 46.89,88.67 M 62.98,84.62 L 61.70,83.87 L 59.56,82.56 L 58.55,81.94 L 56.90,80.82 L 56.12,80.27 L 54.89,79.24 L 54.32,78.73 L 53.43,77.71 L 53.03,77.20 L 52.44,76.11 L 52.17,75.54 L 51.80,74.29 L 51.63,73.64 L 51.41,72.14 L 51.18,69.53 L 51.10,68.22 L 51.08,66.10 L 51.10,65.10 L 51.34,63.33 L 51.49,62.45 L 52.05,60.69 L 53.30,57.65 L 54.08,55.95 L 56.16,52.93 L 57.26,51.50 L 59.73,49.24 L 60.35,48.73 L 61.61,47.91 L 62.24,47.54 L 63.48,47.00 L 64.09,46.78 L 65.25,46.57 L 66.88,46.66 L 68.00,46.92 L 70.30,47.79 L 71.46,48.28 L 73.73,49.52 L 74.85,50.18 L 76.97,51.72 L 79.83,54.29 L 83.15,57.75 L 80.72,60.18 L 80.00,60.91 L 78.84,62.89 L 78.32,63.93 L 77.66,66.18 L 77.40,67.30 L 77.34,69.32 L 77.37,69.79 L 77.56,70.61 L 78.06,71.58 L 78.23,71.77 L 78.78,72.13 L 79.09,72.30 L 79.86,72.58 L 82.53,73.00 L 83.17,73.00 L 84.27,72.83 L 84.79,72.71 L 85.76,72.23 L 86.24,71.95 L 87.22,71.08 L 88.87,69.25 L 89.25,68.78 L 89.88,68.02 L 90.17,67.67 L 90.64,67.13 L 91.07,66.64 L 91.55,66.31 L 91.75,66.24 L 91.90,66.69 L 91.97,68.17 L 91.98,68.90 L 92.32,70.16 L 93.13,71.21 L 93.34,71.28 L 93.55,71.64 L 93.61,71.84 L 93.56,72.44 L 93.45,73.08 L 92.58,74.83 L 92.05,75.75 L 90.56,77.72 L 87.89,80.44 L 87.45,80.81 L 86.27,81.66 L 85.64,82.09 L 84.18,83.02 L 82.66,83.96 L 79.28,85.83 L 78.44,86.27 L 76.84,87.07 L 76.06,87.45 L 74.65,88.08 L 73.98,88.36 L 72.90,88.75 L 71.76,89.00 L 71.58,89.00 L 70.66,88.65 L 70.13,88.43 L 68.64,87.71 L 67.85,87.31 L 65.99,86.32 L 65.03,85.79 M 80.76,83.38 L 81.59,82.92 L 83.03,82.06 L 83.72,81.64 L 84.90,80.82 L 86.04,80.02 L 87.66,78.41 L 88.39,77.59 L 89.38,75.76 L 90.38,72.50 L 90.53,71.76 L 90.70,70.85 L 90.75,70.49 L 90.66,70.36 L 90.58,70.40 L 90.16,71.09 L 89.07,73.07 L 88.58,73.97 L 87.17,75.72 L 86.39,76.60 L 84.33,78.34 L 83.21,79.22 L 80.44,81.00 L 75.40,83.79 L 71.35,85.86 L 65.37,82.08 L 63.73,81.04 L 60.18,78.26 L 59.33,77.57 L 57.84,76.21 L 56.08,74.40 L 52.78,70.50 L 53.43,73.50 L 53.62,74.36 L 54.41,75.94 L 54.89,76.73 L 56.46,78.34 L 56.92,78.75 L 58.02,79.63 L 58.61,80.08 L 60.00,81.04 L 60.73,81.54 L 62.43,82.62 L 65.39,84.41 L 66.22,84.91 L 67.60,85.71 L 68.25,86.08 L 69.35,86.62 L 69.88,86.87 L 70.83,87.15 L 71.30,87.25 L 72.22,87.26 L 72.70,87.23 L 73.72,86.95 L 74.26,86.78 L 75.52,86.21 L 76.19,85.89 L 77.80,85.03 L 78.67,84.56 M 65.87,71.24 L 66.18,70.66 L 66.45,69.35 L 66.53,68.67 L 66.40,67.23 L 66.28,66.50 L 65.80,65.03 L 65.52,64.30 L 64.75,62.89 L 64.34,62.21 L 63.34,60.98 L 62.82,60.39 L 61.66,59.42 L 61.07,58.98 L 59.80,58.38 L 57.85,58.00 L 57.20,58.00 L 56.08,58.34 L 55.56,58.56 L 54.69,59.28 L 54.29,59.68 L 53.69,60.69 L 53.42,61.23 L 53.11,62.45 L 52.98,63.07 L 52.97,64.42 L 53.00,65.10 L 53.29,66.48 L 53.48,67.16 L 54.11,68.50 L 55.45,70.35 L 56.19,71.16 L 58.12,72.24 L 59.12,72.70 L 61.21,73.06 L 62.23,73.14 L 64.02,72.74 L 64.43,72.59 L 65.11,72.14 L 65.42,71.89 M 18.04,81.83 L 18.04,81.60 L 18.23,80.93 L 18.36,80.57 L 18.78,79.73 L 20.62,77.05 L 20.98,76.61 L 21.95,75.63 L 22.46,75.13 L 23.63,74.09 L 24.84,73.05 L 27.41,71.10 L 28.03,70.65 L 29.17,69.88 L 29.72,69.53 L 30.63,69.01 L 31.05,68.79 L 31.63,68.61 L 32.00,68.78 L 32.00,68.90 L 31.60,69.38 L 31.35,69.65 L 30.53,70.36 L 30.07,70.73 L 28.93,71.58 L 26.98,72.92 L 25.55,73.84 L 22.85,76.29 L 22.22,76.91 L 21.18,78.13 L 20.03,79.83 L 19.76,80.34 L 19.27,81.13 L 19.03,81.49 L 18.64,81.94 L 18.46,82.12 L 18.21,82.19 L 18.11,82.18 M 79.00,70.09 L 79.00,69.91 L 79.26,69.41 L 79.43,69.15 L 79.96,68.53 L 80.55,67.89 L 82.16,66.55 L 82.99,65.90 L 84.56,64.95 L 84.91,64.77 L 85.50,64.56 L 86.10,64.56 L 86.35,64.72 L 86.56,65.17 L 86.61,65.42 L 86.42,66.10 L 86.26,66.47 L 85.64,67.43 L 84.19,69.25 L 83.80,69.71 L 82.72,70.37 L 82.16,70.66 L 81.01,70.95 L 80.46,71.04 L 79.59,70.88 L 79.23,70.74 M 39.75,64.12 L 39.59,63.41 L 39.35,61.75 L 39.25,60.88 L 39.11,59.00 L 39.00,57.08 L 39.07,52.94 L 39.15,50.88 L 39.59,47.01 L 39.72,46.09 L 40.05,44.43 L 40.62,42.28 L 41.24,40.48 L 42.85,37.13 L 43.72,35.50 L 45.90,32.44 L 47.06,30.93 L 49.87,28.08 L 54.85,23.93 L 55.66,23.34 L 57.00,22.36 L 57.64,21.91 L 58.73,21.17 L 59.78,20.49 L 61.48,19.72 L 62.33,19.41 L 64.20,19.18 L 64.71,19.14 L 65.90,19.12 L 68.00,19.13 L 74.50,19.24 L 69.75,20.03 L 68.45,20.25 L 65.41,21.21 L 64.68,21.47 L 63.33,22.04 L 61.65,22.91 L 61.23,23.17 L 60.23,23.91 L 59.71,24.31 L 58.55,25.30 L 57.35,26.35 L 54.72,28.93 L 53.40,30.26 L 50.86,33.06 L 47.69,37.00 L 47.40,37.40 L 46.96,37.95 L 46.76,38.18 L 46.50,38.39 L 46.39,38.44 L 46.32,38.30 L 46.43,37.70 L 46.54,37.33 L 46.64,36.81 L 46.67,36.59 L 46.62,36.35 L 46.57,36.27 L 46.39,36.29 L 46.28,36.33 L 46.00,36.59 L 45.69,36.90 L 44.84,38.14 L 43.42,40.73 L 43.10,41.40 L 42.56,43.10 L 42.31,44.02 L 41.90,46.31 L 41.71,47.54 L 41.40,50.54 L 41.05,56.00 L 41.00,57.05 L 40.90,58.87 L 40.85,59.74 L 40.75,61.18 L 40.70,61.85 L 40.61,62.93 L 40.56,63.43 L 40.45,64.16 L 40.40,64.48 L 40.30,64.87 L 40.24,65.02 L 40.13,65.09 L 40.07,65.08 L 39.95,64.83 L 39.88,64.67 M 28.61,63.42 L 28.38,62.82 L 28.11,61.43 L 28.00,60.71 L 27.95,59.14 L 27.96,57.54 L 28.53,54.25 L 28.71,53.45 L 29.19,51.97 L 29.45,51.25 L 30.05,50.01 L 30.37,49.42 L 31.08,48.52 L 32.23,47.67 L 32.40,47.60 L 32.52,47.46 L 32.54,47.40 L 32.36,47.28 L 30.90,47.08 L 29.92,47.05 L 28.27,47.58 L 27.51,47.94 L 26.37,49.14 L 25.87,49.81 L 25.34,51.56 L 25.33,54.64 L 25.44,55.32 L 25.53,56.31 L 25.56,56.74 L 25.50,57.27 L 25.45,57.48 L 25.27,57.57 L 25.16,57.57 L 24.88,57.27 L 24.73,57.07 L 24.37,56.40 L 24.18,56.02 L 23.77,55.01 L 23.56,54.47 L 23.12,53.16 L 22.46,50.90 L 22.15,49.73 L 21.66,47.78 L 21.44,46.87 L 21.15,45.40 L 21.03,44.71 L 20.96,43.65 L 20.96,43.16 L 21.15,42.43 L 21.27,42.11 L 21.73,41.66 L 22.00,41.47 L 22.76,41.23 L 23.18,41.13 L 24.27,41.04 L 26.29,41.00 L 31.59,41.00 L 32.75,36.63 L 32.94,35.92 L 33.53,34.49 L 33.86,33.78 L 34.71,32.35 L 35.61,30.93 L 38.11,28.15 L 39.45,26.78 L 42.70,24.19 L 44.39,22.92 L 48.22,20.59 L 50.18,19.48 L 54.41,17.53 L 56.56,16.61 L 61.02,15.13 L 63.27,14.46 L 67.79,13.55 L 74.46,12.93 L 75.56,12.92 L 77.04,12.86 L 77.66,12.82 L 78.24,12.69 L 78.44,12.60 L 78.25,12.34 L 77.21,11.76 L 76.82,11.57 L 75.63,11.36 L 74.98,11.27 L 73.36,11.25 L 72.50,11.26 L 70.53,11.42 L 69.51,11.52 L 67.31,11.83 L 65.07,12.19 L 60.33,13.30 L 53.69,15.47 L 52.85,15.81 L 51.29,16.39 L 50.55,16.67 L 49.27,17.09 L 48.68,17.28 L 47.83,17.49 L 47.20,17.53 L 47.11,17.44 L 47.40,17.10 L 47.62,16.90 L 48.44,16.38 L 48.90,16.10 L 50.13,15.45 L 50.78,15.11 L 52.30,14.39 L 53.88,13.66 L 57.44,12.21 L 62.47,10.47 L 63.56,10.15 L 66.00,9.68 L 67.26,9.47 L 69.98,9.20 L 72.75,8.99 L 78.73,9.15 L 81.73,9.33 L 87.61,10.24 L 89.04,10.52 L 91.75,11.20 L 95.50,12.42 L 96.46,12.78 L 98.28,13.52 L 99.15,13.88 L 100.67,14.53 L 101.37,14.85 L 102.41,15.35 L 103.26,15.86 L 103.32,15.92 L 103.19,16.01 L 103.09,16.05 L 102.67,16.13 L 102.19,16.20 L 100.50,16.28 L 99.54,16.32 L 97.08,16.32 L 92.76,16.22 L 91.22,16.17 L 87.60,16.14 L 85.74,16.14 L 81.86,16.21 L 79.93,16.25 L 76.24,16.42 L 71.46,16.75 L 70.21,16.86 L 68.15,17.06 L 67.18,17.16 L 65.57,17.37 L 64.81,17.48 L 63.52,17.73 L 62.91,17.87 L 61.81,18.21 L 60.74,18.60 L 58.62,19.83 L 58.05,20.20 L 56.76,21.11 L 54.46,22.78 L 52.54,24.18 L 48.72,27.43 L 47.83,28.21 L 46.33,29.66 L 44.69,31.45 L 43.97,32.38 L 42.44,34.78 L 41.68,36.03 L 40.29,38.66 L 39.64,39.96 L 38.67,42.25 L 38.47,42.78 L 38.20,43.68 L 38.02,44.71 L 38.02,44.87 L 37.82,45.46 L 37.69,45.79 L 37.28,46.63 L 35.51,49.57 L 35.17,50.08 L 34.45,51.46 L 34.10,52.20 L 33.40,53.89 L 31.81,59.12 L 31.66,59.86 L 31.37,61.13 L 31.22,61.73 L 30.95,62.71 L 30.81,63.16 L 30.55,63.86 L 30.42,64.17 L 30.16,64.58 L 30.03,64.75 L 29.78,64.89 L 29.65,64.92 L 29.40,64.79 L 29.14,64.59 M 16.50,59.86 L 15.75,59.25 L 14.51,58.22 L 13.92,57.73 L 12.97,56.89 L 12.08,56.09 L 11.03,54.82 L 10.59,54.21 L 10.20,52.99 L 10.02,50.75 L 10.01,49.92 L 10.26,48.83 L 10.42,48.38 L 10.88,48.08 L 11.12,48.03 L 11.65,48.54 L 12.35,50.25 L 12.43,50.56 L 12.97,51.58 L 13.30,52.14 L 14.25,53.53 L 18.04,58.25 L 18.74,59.04 L 19.96,60.48 L 20.53,61.17 L 21.41,62.30 L 21.80,62.82 L 22.25,63.52 L 22.33,63.96 L 22.22,63.96 L 21.61,63.63 L 21.26,63.42 L 20.28,62.74 L 19.75,62.37 L 18.51,61.44 L 17.87,60.96 M 100.68,60.33 L 100.61,60.07 L 100.43,59.22 L 100.34,58.75 L 100.14,57.57 L 99.55,53.50 L 99.33,51.69 L 98.82,48.42 L 98.56,46.85 L 97.95,44.01 L 97.63,42.64 L 96.89,40.19 L 96.50,39.00 L 95.61,36.87 L 95.15,35.84 L 94.08,33.98 L 93.53,33.08 L 92.26,31.43 L 91.60,30.63 L 90.12,29.16 L 87.61,27.07 L 86.98,26.60 L 85.86,25.70 L 85.34,25.27 L 84.51,24.52 L 84.13,24.16 L 83.67,23.63 L 83.48,23.18 L 83.63,23.03 L 84.32,23.20 L 84.72,23.34 L 85.80,24.00 L 86.38,24.38 L 87.73,25.42 L 88.42,25.97 L 89.89,27.26 L 91.37,28.58 L 94.12,31.48 L 94.74,32.18 L 95.77,33.49 L 96.85,35.19 L 97.10,35.70 L 97.67,37.46 L 97.96,38.43 L 98.58,40.90 L 98.89,42.20 L 99.52,45.09 L 99.82,46.55 L 100.39,49.57 L 100.66,51.06 L 101.12,53.91 L 101.33,55.28 L 101.63,57.66 L 101.76,58.77 L 101.84,60.40 L 101.85,60.74 L 101.81,61.24 L 101.67,61.66 L 101.54,61.80 L 101.18,61.47 L 101.00,61.23 M 59.00,69.00 L 58.46,68.46 L 57.72,67.52 L 57.40,67.07 L 57.11,66.30 L 57.02,65.94 L 57.16,65.32 L 57.88,64.57 L 58.03,64.48 L 58.50,64.50 L 58.75,64.54 L 59.35,64.79 L 59.98,65.09 L 61.40,66.13 L 62.09,66.70 L 63.22,67.95 L 63.45,68.25 L 63.79,68.82 L 64.00,69.57 L 64.00,70.09 L 63.55,70.68 L 63.26,70.90 L 62.37,70.93 L 61.89,70.88 L 60.76,70.36 L 60.18,70.04 Z" fill="var(--color-shinigami-2, #808080)"/>
</g>
</svg>